<!DOCTYPE svg PUBLIC "-//W3C//DTD SVG 1.1//EN" "http://www.w3.org/Graphics/SVG/1.1/DTD/svg11.dtd">
<!-- Uploaded to: SVG Repo, www.svgrepo.com, Transformed by: SVG Repo Mixer Tools -->
<svg version="1.1" id="Layer_1" xmlns="http://www.w3.org/2000/svg" xmlns:xlink="http://www.w3.org/1999/xlink" viewBox="0 0 512 512" xml:space="preserve" width="800px" height="800px" fill="#000000">
<g id="SVGRepo_bgCarrier" stroke-width="0"/>
<g id="SVGRepo_tracerCarrier" stroke-linecap="round" stroke-linejoin="round"/>
<g id="SVGRepo_iconCarrier"> <path style="fill:#9F633C;" d="M444,404v72c0,8.8-7.2,16-16,16H256v-88v-88h188V404z"/> <path style="fill:#BD8150;" d="M428,4c8.8,0,16,7.2,16,16v296H256V4H428z"/> <polygon style="fill:#554542;" points="428,492 428,508 84,508 84,492 256,492 "/> <g> <path style="fill:#9F633C;" d="M256,404v88H84c-8.8,0-16-7.2-16-16v-72H256z"/> <rect x="68" y="316" style="fill:#9F633C;" width="188" height="88"/> </g> <path style="fill:#BD8150;" d="M256,4v312H68V20c0-8.8,7.2-16,16-16H256z"/> <path d="M428,512H84c-2.4,0-4-1.6-4-4v-16c0-2.4,1.6-4,4-4s4,1.6,4,4v12h336v-12c0-2.4,1.6-4,4-4s4,1.6,4,4v16 C432,510.4,430.4,512,428,512z"/> <path d="M428,496H84c-11.2,0-20-8.8-20-20V20C64,8.8,72.8,0,84,0h344c11.2,0,20,8.8,20,20v456C448,487.2,439.2,496,428,496z M84,8 c-6.8,0-12,5.2-12,12v456c0,6.8,5.2,12,12,12h344c6.8,0,12-5.2,12-12V20c0-6.8-5.2-12-12-12H84z"/> <path d="M256,496c-2.4,0-4-1.6-4-4V4c0-2.4,1.6-4,4-4s4,1.6,4,4v488C260,494.4,258.4,496,256,496z"/> <path d="M424,28h-16c-2.4,0-4-1.6-4-4s1.6-4,4-4h16c2.4,0,4,1.6,4,4S426.4,28,424,28z"/> <path d="M392,28h-16c-2.4,0-4-1.6-4-4s1.6-4,4-4h16c2.4,0,4,1.6,4,4S394.4,28,392,28z"/> <path d="M424,84c-2.4,0-4-1.6-4-4V24c0-2.4,1.6-4,4-4s4,1.6,4,4v56C428,82.4,426.4,84,424,84z"/> <path d="M444,408H276c-2.4,0-4-1.6-4-4s1.6-4,4-4h168c2.4,0,4,1.6,4,4S446.4,408,444,408z"/> <path d="M256,408H68c-2.4,0-4-1.6-4-4s1.6-4,4-4h188c2.4,0,4,1.6,4,4S258.4,408,256,408z"/> <path d="M188,428h-52c-2.4,0-4-1.6-4-4s1.6-4,4-4h52c2.4,0,4,1.6,4,4S190.4,428,188,428z"/> <path d="M376,428h-52c-2.4,0-4-1.6-4-4s1.6-4,4-4h52c2.4,0,4,1.6,4,4S378.4,428,376,428z"/> <path d="M444,320H68c-2.4,0-4-1.6-4-4s1.6-4,4-4h376c2.4,0,4,1.6,4,4S446.4,320,444,320z"/> <path d="M188,340h-52c-2.4,0-4-1.6-4-4s1.6-4,4-4h52c2.4,0,4,1.6,4,4S190.4,340,188,340z"/> <path d="M376,340h-52c-2.4,0-4-1.6-4-4s1.6-4,4-4h52c2.4,0,4,1.6,4,4S378.4,340,376,340z"/> <path d="M232,192c-2.4,0-4-1.6-4-4v-56c0-2.4,1.6-4,4-4s4,1.6,4,4v56C236,190.4,234.4,192,232,192z"/> <path d="M280,192c-2.4,0-4-1.6-4-4v-56c0-2.4,1.6-4,4-4s4,1.6,4,4v56C284,190.4,282.4,192,280,192z"/> </g>
</svg>