<!DOCTYPE svg PUBLIC "-//W3C//DTD SVG 1.1//EN" "http://www.w3.org/Graphics/SVG/1.1/DTD/svg11.dtd">
<!-- Uploaded to: SVG Repo, www.svgrepo.com, Transformed by: SVG Repo Mixer Tools -->
<svg height="800px" width="800px" version="1.1" id="Layer_1" xmlns="http://www.w3.org/2000/svg" xmlns:xlink="http://www.w3.org/1999/xlink" viewBox="0 0 512 512" xml:space="preserve" fill="#000000">
<g id="SVGRepo_bgCarrier" stroke-width="0"/>
<g id="SVGRepo_tracerCarrier" stroke-linecap="round" stroke-linejoin="round"/>
<g id="SVGRepo_iconCarrier"> <path style="fill:#736056;" d="M294.957,367.304c-9.217,0-16.696-7.473-16.696-16.696v-33.391c0-9.206-7.49-16.696-16.696-16.696 H50.087C22.468,300.522,0,278.054,0,250.435V150.261c0-27.619,22.468-50.087,50.087-50.087h44.522 c9.217,0,16.696,7.473,16.696,16.696s-7.479,16.696-16.696,16.696H50.087c-9.206,0-16.696,7.49-16.696,16.696v100.174 c0,9.206,7.49,16.696,16.696,16.696h211.478c27.619,0,50.087,22.468,50.087,50.087v33.391 C311.652,359.831,304.174,367.304,294.957,367.304z"/> <path style="fill:#665247;" d="M294.957,280.157v87.147c9.217,0,16.696-7.473,16.696-16.696v-33.391 C311.652,302.472,305.129,289.331,294.957,280.157z"/> <path style="fill:#FFE0B2;" d="M461.913,233.739H128c-27.619,0-50.087-22.468-50.087-50.087V116.87 c0-27.619,22.468-50.087,50.087-50.087s50.087,22.468,50.087,50.087c0,4.44,1.739,8.631,4.902,11.794 c6.327,6.327,17.261,6.327,23.587,0c3.163-3.163,4.903-7.354,4.903-11.794c0-13.364,5.217-25.935,14.684-35.403 c9.468-9.466,22.044-14.684,35.403-14.684c13.359,0,25.935,5.218,35.403,14.684s14.684,22.038,14.684,35.403 c0,4.44,1.74,8.631,4.902,11.794c3.162,3.163,7.348,4.902,11.794,4.902c9.206,0,16.696-7.49,16.696-16.696 c0-27.619,22.468-50.087,50.087-50.087c27.619,0,50.087,22.468,50.087,50.087c0,4.44,1.74,8.631,4.902,11.794 c3.162,3.163,7.348,4.902,11.794,4.902c9.206,0,16.696-7.49,16.696-16.696c0-9.223,7.479-16.696,16.696-16.696 c9.217,0,16.696,7.473,16.696,16.696v66.783C512,211.271,489.532,233.739,461.913,233.739z"/> <path style="fill:#FDCD99;" d="M495.304,100.174c-9.217,0-16.696,7.473-16.696,16.696c0,9.206-7.49,16.696-16.696,16.696 c-4.445,0-8.631-1.74-11.794-4.902c-3.163-3.162-4.902-7.354-4.902-11.794c0-27.619-22.468-50.087-50.087-50.087 c-27.619,0-50.087,22.468-50.087,50.087c0,9.206-7.49,16.696-16.696,16.696c-4.445,0-8.631-1.74-11.794-4.902 c-3.163-3.162-4.902-7.354-4.902-11.794c0-13.364-5.218-25.935-14.684-35.403c-0.622-0.622-1.361-1.067-2.011-1.654v153.926h166.957 c27.619,0,50.087-22.468,50.087-50.087V116.87C512,107.647,504.521,100.174,495.304,100.174z"/> <path style="fill:#88CC2A;" d="M461.913,0H128c-27.603,0-50.087,22.483-50.087,50.087v66.783c0,9.238,7.456,16.696,16.696,16.696 s16.696-7.457,16.696-16.696s7.456-16.696,16.696-16.696s16.696,7.457,16.696,16.696c0,13.357,5.231,25.934,14.693,35.395 c9.459,9.461,22.037,14.692,35.394,14.692s25.935-5.231,35.394-14.692c9.462-9.461,14.693-22.038,14.693-35.395 c0-4.452,1.78-8.682,4.896-11.798c6.345-6.344,17.252-6.344,23.598,0c3.117,3.117,4.896,7.346,4.896,11.798 c0,13.357,5.231,25.934,14.693,35.395c0.667,0.668,1.335,1.224,2.002,1.781c9.128,8.348,20.925,12.911,33.391,12.911 c27.603,0,50.087-22.483,50.087-50.087c0-9.238,7.456-16.696,16.696-16.696c9.239,0,16.696,7.457,16.696,16.696 c0,13.357,5.231,25.934,14.693,35.395c9.46,9.461,22.038,14.692,35.395,14.692c27.603,0,50.087-22.483,50.087-50.087V50.087 C512,22.483,489.516,0,461.913,0z"/> <path style="fill:#7FB335;" d="M512,50.087v66.783c0,27.603-22.483,50.087-50.087,50.087c-13.357,0-25.935-5.231-35.394-14.692 c-9.462-9.461-14.693-22.038-14.693-35.395c0-9.238-7.456-16.696-16.696-16.696c-9.239,0-16.696,7.457-16.696,16.696 c0,27.603-22.483,50.087-50.087,50.087c-12.466,0-24.263-4.563-33.391-12.911V0h166.957C489.516,0,512,22.483,512,50.087z"/> <path style="fill:#FF9F19;" d="M294.957,512c-27.619,0-50.087-22.468-50.087-50.087V350.609c0-9.223,7.479-16.696,16.696-16.696 h66.783c9.217,0,16.696,7.473,16.696,16.696v111.304C345.043,489.532,322.576,512,294.957,512z"/> <path style="fill:#F28618;" d="M345.043,461.913V350.609c0-9.223-7.479-16.696-16.696-16.696h-33.391V512 C322.576,512,345.043,489.532,345.043,461.913z"/> </g>
</svg>